<svg viewBox="0 0 14 16" fill="none" xmlns="http://www.w3.org/2000/svg">
<path fill-rule="evenodd" clip-rule="evenodd" d="M6.9978 11.4759H10.5663C10.8845 11.4759 11.2026 11.4733 11.5207 11.4769C11.6526 11.4784 11.6891 11.4381 11.6106 11.3223C11.5873 11.2881 11.5694 11.2503 11.5479 11.2147C10.8448 10.0504 10.4962 8.78635 10.4785 7.42744C10.4722 6.94353 10.4882 6.46013 10.4442 5.97576C10.3194 4.60103 9.42961 3.49494 8.07596 3.15202C7.52108 3.01141 6.9567 2.99813 6.38833 3.06437C5.05178 3.22026 3.95686 4.13041 3.64613 5.4747C3.51367 6.04775 3.52245 6.62838 3.52919 7.20909C3.54608 8.66373 3.19092 10.0157 2.43285 11.2598C2.30355 11.472 2.30734 11.4756 2.55782 11.4757C4.03782 11.4761 5.51781 11.4759 6.9978 11.4759ZM7.00342 12.9969C4.95564 12.9969 2.9079 12.9979 0.860168 12.9962C0.361983 12.9958 0.039733 12.7116 0.00204156 12.2511C-0.0170122 12.0183 0.100139 11.8401 0.235096 11.6695C0.630316 11.1702 1.02495 10.6714 1.31167 10.0967C1.69 9.3385 1.90962 8.54148 1.97768 7.69438C2.0321 7.01702 1.95734 6.33672 2.04741 5.66224C2.3157 3.65379 3.70267 2.11305 5.66891 1.63506C5.99386 1.55607 5.99782 1.55603 5.99295 1.21173C5.98854 0.902536 6.00164 0.603915 6.22297 0.353135C6.49646 0.0432719 6.94597 -0.0820141 7.33774 0.0553882C7.76045 0.203658 7.99343 0.529093 8.01244 0.979023C8.02022 1.16373 7.94038 1.38007 8.05396 1.52505C8.16146 1.66237 8.38361 1.64001 8.55472 1.6891C10.5807 2.27002 11.9697 4.08178 11.9943 6.19598C12.0031 6.95049 11.9941 7.70503 12.1325 8.4508C12.3276 9.5018 12.7997 10.4235 13.4492 11.2616C13.5932 11.4475 13.7508 11.6249 13.8762 11.8226C14.1896 12.3172 13.8764 12.935 13.2917 12.9914C13.2025 13 13.112 12.9968 13.0221 12.9968C11.0159 12.9971 9.0096 12.997 7.00342 12.9969Z" fill="currentColor"/>
<path fill-rule="evenodd" clip-rule="evenodd" d="M7.00013 13.969C7.58073 13.969 8.16128 13.9684 8.74188 13.9692C9.00776 13.9697 9.03064 13.9951 8.99004 14.2555C8.86698 15.045 8.41364 15.5925 7.6839 15.8626C6.90424 16.1511 6.18843 15.9804 5.58641 15.3867C5.26965 15.0744 5.07807 14.702 5.01625 14.2613C4.97885 13.9949 4.99661 13.9698 5.25837 13.9693C5.83897 13.9683 6.41953 13.969 7.00013 13.969Z" fill="currentColor"/>
</svg>
