<svg viewBox="0 0 10 8" fill="none" xmlns="http://www.w3.org/2000/svg">
<path fill-rule="evenodd" clip-rule="evenodd" d="M0.726493 3.18952C0.960171 3.18196 1.14957 3.29598 1.30681 3.47486C2.01067 4.27559 2.7109 5.08032 3.41294 5.88309C3.54743 6.03686 3.54874 6.0359 3.68816 5.87989C5.33865 4.03298 6.98909 2.186 8.63943 0.338882C8.81183 0.145949 9.00263 -0.000398769 9.26069 8.16287e-07C9.54132 0.0004337 9.76367 0.12244 9.90032 0.397987C10.0407 0.680927 10.0309 0.970892 9.88314 1.2509C9.83277 1.34637 9.76842 1.43018 9.69795 1.509C7.86516 3.55887 6.03326 5.60974 4.20059 7.65978C3.7963 8.11201 3.35383 8.11347 2.95138 7.66377C2.06255 6.67064 1.17497 5.67607 0.28667 4.68234C0.0489485 4.41641 -0.0671917 4.10693 0.040296 3.73392C0.140945 3.38458 0.398202 3.18919 0.726493 3.18952" fill="currentColor"/>
</svg>
