<svg viewBox="0 0 18 14" fill="none" xmlns="http://www.w3.org/2000/svg">
<path fill-rule="evenodd" clip-rule="evenodd" d="M7.87315 5.38502C8.80471 5.38502 9.56025 6.10842 9.56025 7.00037C9.56025 7.89231 8.80471 8.61572 7.87315 8.61572C6.94158 8.61572 6.18604 7.89231 6.18604 7.00037C6.18604 6.10842 6.94158 5.38502 7.87315 5.38502ZM7.87315 10.2311C9.75511 10.2324 11.2783 8.75841 11.2496 6.94975C11.2229 5.28998 9.82737 3.88382 8.09753 3.7764C6.46779 3.67544 5.01154 4.69795 4.6086 6.19269H0.843551C0.37763 6.19269 0 6.55426 0 7.00037C0 7.44647 0.37763 7.80804 0.843551 7.80804H4.6086C4.99298 9.23359 6.33535 10.23 7.87315 10.2311Z" fill="currentColor"/>
<path fill-rule="evenodd" clip-rule="evenodd" d="M15.1096 6.19541C14.9222 4.62677 14.179 3.16534 13.0022 2.05027C10.1484 -0.659554 5.53859 -0.682717 2.65278 1.97782C2.63689 1.99156 2.62101 2.00502 2.60626 2.02011C2.5952 2.03034 2.58357 2.03977 2.57279 2.05L2.57648 2.05404C2.45139 2.19437 2.3731 2.37375 2.3731 2.57198C2.3731 3.01666 2.75262 3.37704 3.22092 3.37704C3.42968 3.37704 3.61859 3.3027 3.76637 3.18365L3.77545 3.19227C5.99044 1.08819 9.58224 1.08792 11.7981 3.19119C14.0139 5.29447 14.0145 8.70511 11.7992 10.8092C9.58423 12.913 5.99214 12.9135 3.77658 10.8105L3.77063 10.8135C3.61575 10.6204 3.37352 10.4935 3.09782 10.4935C2.62952 10.4935 2.25 10.8539 2.25 11.2986C2.25 11.5604 2.38331 11.7904 2.58697 11.9375L2.57251 11.9512C5.45378 14.6847 10.1234 14.6828 13.0022 11.9469C14.1745 10.8326 14.9168 9.37577 15.1096 7.81144H17.192C17.6382 7.81144 18 7.44968 18 7.00343C18 6.55717 17.6382 6.19541 17.192 6.19541H15.1096Z" fill="currentColor"/>
</svg>
