<svg viewBox="0 0 20 17" fill="none" xmlns="http://www.w3.org/2000/svg">
<mask id="mask0_19_515" style="mask-type:alpha" maskUnits="userSpaceOnUse" x="0" y="0" width="20" height="14">
<path fill-rule="evenodd" clip-rule="evenodd" d="M0 0H20V13.76H0V0Z" fill="white"/>
</mask>
<g mask="url(#mask0_19_515)">
<path fill-rule="evenodd" clip-rule="evenodd" d="M10.0268 1.9037C9.22094 1.9037 8.41509 1.9037 7.60918 1.9037C5.97143 1.90376 4.33368 1.90167 2.69599 1.90511C2.11893 1.90631 1.91327 2.1162 1.90425 2.68871C1.903 2.76671 1.90384 2.84472 1.90384 2.92267C1.90384 5.34902 1.90384 7.77531 1.90384 10.2016C1.90384 10.4962 1.90024 10.7909 1.90498 11.0855C1.91373 11.6263 2.12909 11.8427 2.66358 11.8558C2.70693 11.8569 2.75027 11.8563 2.79356 11.8563C7.59413 11.8563 12.3947 11.8564 17.1953 11.8556C17.3075 11.8556 17.4217 11.8558 17.5316 11.8367C17.8676 11.7781 18.0143 11.6324 18.0742 11.2984C18.0938 11.1886 18.0954 11.0746 18.0954 10.9624C18.0965 8.24147 18.0963 5.52056 18.0961 2.79965C18.0961 2.72164 18.0991 2.64327 18.0923 2.56579C18.0548 2.13678 17.8659 1.94701 17.4355 1.90813C17.3408 1.89964 17.245 1.90386 17.1496 1.90386C14.7754 1.90365 12.4011 1.9037 10.0268 1.9037ZM9.9934 0.000258911C12.4199 0.000258911 14.8463 -0.000314274 17.2728 0.000467342C18.9427 0.00098842 19.9991 1.05977 19.9995 2.73316C20.0002 5.49763 20.0002 8.26205 19.9995 11.0265C19.9991 12.7001 18.9428 13.7593 17.2731 13.7595C12.4202 13.7602 7.5673 13.7603 2.71438 13.7595C1.06261 13.7592 0.00113306 12.695 0.000664206 11.0399C-0.000221402 8.26674 -0.000221402 5.49362 0.000664206 2.72049C0.00113306 1.06482 1.06214 0.00119685 2.71406 0.00051945C5.14053 -0.000470598 7.56699 0.000258911 9.9934 0.000258911Z" fill="white"/>
</g>
<path fill-rule="evenodd" clip-rule="evenodd" d="M9.99674 14.9769C12.3441 14.977 14.6915 14.9761 17.0389 14.9777C17.6144 14.978 17.9555 15.2052 18.0773 15.6573C18.234 16.2392 17.9211 16.7445 17.3295 16.857C17.2284 16.8763 17.1229 16.8793 17.0195 16.8793C12.342 16.8804 7.66457 16.8802 2.98715 16.8804C2.71428 16.8804 2.44844 16.8517 2.22813 16.6695C1.91275 16.4088 1.80257 16.0219 1.93469 15.6136C2.06107 15.223 2.35478 15.0354 2.74715 14.9866C2.85832 14.9728 2.97199 14.9772 3.08452 14.9772C5.38856 14.9768 7.69265 14.9769 9.99674 14.9769Z" fill="white"/>
</svg>
