<svg viewBox="0 0 16 18" fill="none" xmlns="http://www.w3.org/2000/svg">
<path fill-rule="evenodd" clip-rule="evenodd" d="M13.5788 0.857422C14.5197 0.857422 15.2858 1.64599 15.2858 2.62314V18.0003L13.4956 16.3717L12.4881 15.4117L11.4223 14.3917L11.8636 15.9774H2.42129C1.4804 15.9774 0.714355 15.1888 0.714355 14.2117V2.62314C0.714355 1.64599 1.4804 0.857422 2.42129 0.857422H13.5788V0.857422ZM10.3648 12.0517C12.205 11.9917 12.9127 10.7489 12.9127 10.7489C12.9127 7.98885 11.7137 5.75171 11.7137 5.75171C10.5147 4.82599 9.37395 4.85171 9.37395 4.85171L9.25738 4.98885C10.6729 5.43456 11.3307 6.07742 11.3307 6.07742C10.4647 5.58885 9.61542 5.34885 8.8244 5.25456C8.22489 5.18599 7.65036 5.20314 7.14244 5.27171L7.00089 5.28885C6.70946 5.31456 6.0017 5.42599 5.11076 5.82885C4.80268 5.97456 4.6195 6.07742 4.6195 6.07742C4.6195 6.07742 5.3106 5.40028 6.80938 4.95456L6.72611 4.85171C6.72611 4.85171 5.58538 4.82599 4.38636 5.75171C4.38636 5.75171 3.18734 7.98885 3.18734 10.7489C3.18734 10.7489 3.88676 11.9917 5.72693 12.0517C5.72693 12.0517 6.03501 11.666 6.2848 11.3403C5.22733 11.0146 4.82766 10.3289 4.82766 10.3289L5.0608 10.4746L5.09411 10.5003L5.12672 10.5196L5.13644 10.5239L5.16905 10.5431C5.37721 10.6631 5.58538 10.7574 5.77689 10.8346C6.11827 10.9717 6.52627 11.1089 7.00089 11.2031C7.62538 11.3231 8.35811 11.366 9.15746 11.2117C9.5488 11.1431 9.94848 11.0231 10.3648 10.8431C10.6562 10.7317 10.981 10.5689 11.3224 10.3374C11.3224 10.3374 10.906 11.0403 9.81525 11.3574C10.065 11.6831 10.3648 12.0517 10.3648 12.0517V12.0517ZM6.49297 8.04885C6.01836 8.04885 5.64366 8.47742 5.64366 9.00028C5.64366 9.52314 6.02668 9.95171 6.49297 9.95171C6.96758 9.95171 7.34227 9.52314 7.34227 9.00028C7.3506 8.47742 6.96758 8.04885 6.49297 8.04885ZM9.53215 8.04885C9.05754 8.04885 8.68285 8.47742 8.68285 9.00028C8.68285 9.52314 9.06587 9.95171 9.53215 9.95171C10.0068 9.95171 10.3815 9.52314 10.3815 9.00028C10.3815 8.47742 10.0068 8.04885 9.53215 8.04885Z" fill="currentColor"/>
</svg>
