<svg viewBox="0 0 16 16" fill="none" xmlns="http://www.w3.org/2000/svg">
<path fill-rule="evenodd" clip-rule="evenodd" d="M7.05716 16.0011C5.6732 16.0011 4.28929 16.0021 2.90534 16.0008C1.63028 15.9996 0.680602 15.3736 0.188434 14.2018C0.0660533 13.9104 0.00475801 13.6001 0.00463198 13.2824C0.00332961 10.3896 -0.00713134 7.49669 0.00849707 4.60394C0.0164373 3.13351 1.2481 1.9129 2.7186 1.89219C3.89963 1.87556 5.08105 1.88526 6.26229 1.8895C6.64217 1.89085 6.91684 2.07846 7.01842 2.37911C7.13093 2.71216 7.04678 3.03655 6.78744 3.25163C6.61616 3.39367 6.40967 3.42194 6.19617 3.42194C5.11281 3.42198 4.02941 3.42034 2.94601 3.42307C2.59731 3.42395 2.27004 3.48726 1.99133 3.72898C1.66402 4.01283 1.53848 4.3739 1.53832 4.79041C1.53722 7.55752 1.53827 10.3246 1.53731 13.0917C1.5371 13.6323 1.74774 14.0516 2.22811 14.3202C2.44283 14.4404 2.68108 14.4639 2.9184 14.4642C5.67934 14.4671 8.44019 14.4662 11.2011 14.4659C11.6254 14.4659 11.993 14.3437 12.2819 14.0087C12.5235 13.7287 12.5828 13.4011 12.5838 13.0531C12.5868 11.9631 12.5835 10.873 12.586 9.78293C12.5869 9.37276 12.7659 9.09046 13.0787 8.98645C13.5972 8.814 14.0663 9.11983 14.1156 9.66417C14.1226 9.7405 14.1201 9.8178 14.1201 9.89463C14.1204 10.9497 14.1208 12.0049 14.1201 13.06C14.119 14.806 12.929 15.9998 11.188 16.0009C9.81108 16.0019 8.4341 16.0011 7.05716 16.0011Z" fill="currentColor"/>
<path fill-rule="evenodd" clip-rule="evenodd" d="M14.4414 2.64366C14.4497 2.45349 14.3785 2.2931 14.2576 2.16215C14.1206 2.0137 13.9762 1.86856 13.8173 1.74459C13.4713 1.47468 13.1174 1.49741 12.7983 1.80243C12.5559 2.0342 12.3256 2.27856 12.0839 2.51121C11.9831 2.60825 11.9687 2.68256 12.0764 2.78792C12.4611 3.1641 12.8408 3.5455 13.2185 3.92883C13.3106 4.0223 13.3823 4.03604 13.479 3.93416C13.7195 3.68077 13.9723 3.43892 14.21 3.18292C14.3493 3.03291 14.4579 2.85992 14.4414 2.64366ZM5.96812 9.92645C5.94232 10.1096 6.05912 10.0353 6.11991 10.0178C6.66316 9.86155 7.20469 9.6991 7.74732 9.54056C7.87915 9.50204 7.98494 9.42634 8.08005 9.33123C9.41821 7.99351 10.7553 6.65469 12.0967 5.32033C12.2158 5.20182 12.2076 5.12524 12.0922 5.0132C11.7216 4.65327 11.3553 4.28876 10.9965 3.91703C10.8746 3.79071 10.7952 3.79738 10.674 3.91917C9.34919 5.25042 8.01968 6.57697 6.69177 7.90516C6.61771 7.97926 6.53444 8.05177 6.50322 8.15343C6.32085 8.74697 6.14385 9.34215 5.96812 9.92645ZM15.9994 2.64593C16.0044 3.26803 15.7983 3.80932 15.3563 4.25171C13.292 6.31761 11.2255 8.38125 9.16161 10.4475C8.83223 10.7772 8.444 10.9962 7.99637 11.12C7.02707 11.388 6.0587 11.6593 5.09058 11.9316C4.76797 12.0223 4.48586 11.9784 4.24916 11.7207C4.02763 11.4796 3.98776 11.2055 4.07544 10.9025C4.35877 9.92322 4.64596 8.94509 4.92543 7.96477C5.06297 7.4823 5.31517 7.0786 5.67139 6.72405C7.67712 4.72804 9.67797 2.72717 11.6759 0.7234C12.3262 0.0711733 13.0926 -0.132107 13.9791 0.0816334C14.1917 0.132884 14.3965 0.216691 14.5677 0.347716C15.2298 0.854425 15.8451 1.40033 15.9814 2.29125C15.9877 2.33263 15.9971 2.374 15.9986 2.41559C16.0014 2.49226 15.9994 2.56914 15.9994 2.64593Z" fill="currentColor"/>
</svg>
