<svg viewBox="0 0 16 16" fill="none" xmlns="http://www.w3.org/2000/svg">
<path fill-rule="evenodd" clip-rule="evenodd" d="M10.126 4.24754C10.4345 4.22914 10.8234 4.27259 11.2115 4.21949C11.9744 4.11514 12.424 3.2341 12.0533 2.55958C11.6309 1.79102 10.5119 1.71749 10.0241 2.44675C9.66419 2.98492 9.35256 3.5554 9.01728 4.11022C8.94046 4.23731 9.00736 4.24911 9.11307 4.24836C9.42415 4.2461 9.73531 4.24754 10.126 4.24754ZM5.86878 4.24758C6.24642 4.24758 6.55824 4.24293 6.86975 4.24957C7.02265 4.25282 7.05369 4.2175 6.97116 4.07834C6.68956 3.60361 6.41365 3.12545 6.13997 2.64608C5.84263 2.12525 5.36733 1.88502 4.77425 1.96304C4.2434 2.03286 3.8058 2.54872 3.81271 3.09662C3.81955 3.64315 4.24808 4.14108 4.76781 4.21707C5.15618 4.27384 5.54596 4.23156 5.86878 4.24758ZM11.5066 5.67484C10.7213 5.67484 9.93599 5.67754 9.15078 5.67246C9.0044 5.67152 8.94112 5.70836 8.94405 5.86885C8.95283 6.35569 8.95299 6.84292 8.94401 7.32975C8.941 7.49192 9.00736 7.52509 9.15199 7.52474C10.7225 7.52119 12.2931 7.52037 13.8636 7.52568C14.031 7.52623 14.0725 7.46422 14.0699 7.30904C14.0623 6.84815 14.0586 6.38679 14.0714 5.92613C14.0767 5.7334 14.0263 5.66706 13.8234 5.67011C13.0513 5.68168 12.2789 5.6748 11.5066 5.67484ZM4.48086 7.52255C5.26611 7.52255 6.05139 7.51802 6.83657 7.52607C7.01012 7.52787 7.05985 7.47071 7.05642 7.30197C7.04678 6.82819 7.04924 6.35397 7.05533 5.88011C7.0572 5.73567 7.02293 5.67128 6.86073 5.67179C5.28375 5.67695 3.70673 5.67664 2.12975 5.67214C1.97458 5.67171 1.92809 5.72508 1.93035 5.87569C1.93762 6.35608 1.93886 6.8367 1.92985 7.31701C1.92672 7.48251 1.98743 7.52662 2.14462 7.52537C2.92332 7.51919 3.70212 7.52255 4.48086 7.52255ZM7.05306 11.5226C7.05306 10.7372 7.04849 9.95169 7.05661 9.16633C7.05841 8.99298 7.00169 8.94571 6.83313 8.94649C5.58749 8.95259 4.34181 8.95302 3.09617 8.94618C2.91699 8.94516 2.86379 8.99845 2.86461 9.17778C2.87109 10.6058 2.86726 12.0339 2.86886 13.462C2.86933 13.911 3.03082 14.0712 3.48196 14.072C4.59785 14.0736 5.71381 14.0684 6.82966 14.0766C7.01602 14.0779 7.05802 14.0124 7.05634 13.84C7.04881 13.0676 7.05306 12.2951 7.05306 11.5226ZM8.94713 11.5117C8.94713 12.2843 8.95197 13.0569 8.9435 13.8295C8.94155 14.0102 8.985 14.0782 9.17967 14.0767C10.2893 14.0681 11.3989 14.0735 12.5086 14.0721C12.9831 14.0714 13.1313 13.9196 13.1317 13.4365C13.1326 12.0211 13.129 10.6057 13.1357 9.19032C13.1365 9.00642 13.0883 8.94454 12.897 8.94575C11.6641 8.9536 10.431 8.95368 9.19813 8.94571C9.00588 8.94446 8.93944 8.99091 8.94249 9.1938C8.95404 9.96626 8.94713 10.739 8.94713 11.5117ZM7.98813 15.4997C6.48188 15.4997 4.97564 15.5003 3.46935 15.4995C2.24268 15.4987 1.44279 14.6998 1.44201 13.4744C1.44108 12.0129 1.4392 10.5513 1.44533 9.08972C1.44603 8.92387 1.39154 8.83815 1.24508 8.75959C0.786597 8.51365 0.527827 8.11878 0.513501 7.598C0.495466 6.94242 0.496169 6.28568 0.511627 5.62999C0.529818 4.85873 1.12613 4.27591 1.89838 4.25C2.09298 4.24348 2.28804 4.24325 2.48264 4.24918C2.61661 4.25325 2.64155 4.20945 2.58764 4.08928C2.27887 3.40069 2.3188 2.7155 2.61079 2.03188C3.04398 1.01789 4.21358 0.37353 5.3092 0.520936C6.27417 0.650762 6.95684 1.16573 7.43359 1.99051C7.58629 2.25473 7.74408 2.51617 7.89179 2.78317C7.97595 2.9353 8.03384 2.91686 8.11094 2.77833C8.25928 2.51164 8.41593 2.24961 8.56934 1.98578C9.15238 0.983041 10.0104 0.461708 11.1828 0.510231C12.929 0.582508 14.1081 2.4496 13.4241 4.05779C13.3516 4.2282 13.4031 4.25172 13.562 4.25075C13.8593 4.24895 14.1579 4.22383 14.4525 4.30509C15.0486 4.46953 15.4726 4.98149 15.4877 5.61495C15.5036 6.27716 15.5051 6.94043 15.4863 7.60245C15.4715 8.12316 15.2107 8.51763 14.7511 8.7615C14.6018 8.84073 14.5544 8.93086 14.5551 9.09421C14.5608 10.5557 14.5592 12.0173 14.5582 13.4789C14.5573 14.6939 13.7563 15.4984 12.5459 15.4994C11.0267 15.5006 9.50738 15.4997 7.98813 15.4997Z" fill="currentColor"/>
</svg>
