<svg viewBox="0 0 20 20" fill="none" xmlns="http://www.w3.org/2000/svg">
<path fill-rule="evenodd" clip-rule="evenodd" d="M10 0C4.4775 0 0 4.4775 0 10C0 15.5225 4.4775 20 10 20C15.5225 20 20 15.5225 20 10C20 4.4775 15.5225 0 10 0ZM18.3333 10C18.3333 10.5708 18.275 11.1283 18.165 11.6667H14.9542C15.055 10.5975 15.0617 9.4825 14.9542 8.33333H18.165C18.275 8.87167 18.3333 9.42917 18.3333 10ZM14.7158 6.66667H17.6325C16.7567 4.67 15.1217 3.0825 13.0925 2.26833C13.8392 3.54083 14.3967 5.03333 14.7158 6.66667ZM13.0042 6.66667H10.8333V1.95167C11.8458 3.16833 12.5975 4.79333 13.0042 6.66667ZM9.16667 6.66667V1.95167C8.15417 3.16833 7.4025 4.79333 6.99583 6.66667H9.16667ZM9.16667 8.33333V11.6667H6.725C6.60333 10.4825 6.60333 9.51917 6.725 8.33333H9.16667ZM9.16667 18.0483V13.3333H6.99583C7.4025 15.2067 8.15417 16.8317 9.16667 18.0483ZM10.8333 18.0483V13.3333H13.0042C12.5975 15.2067 11.8458 16.8317 10.8333 18.0483ZM10.8333 8.33333V11.6667H13.275C13.3967 10.4808 13.3967 9.5175 13.275 8.33333H10.8333ZM6.9075 2.26833C6.16083 3.54083 5.60333 5.03333 5.28417 6.66667H2.3675C3.24333 4.67 4.87833 3.0825 6.9075 2.26833ZM5.04583 8.33333H1.835C1.725 8.87167 1.66667 9.42917 1.66667 10C1.66667 10.5708 1.725 11.1283 1.835 11.6667H5.04583C4.93833 10.5175 4.945 9.4025 5.04583 8.33333ZM2.3675 13.3333H5.28417C5.60333 14.9667 6.16083 16.4592 6.9075 17.7317C4.87833 16.9175 3.24333 15.33 2.3675 13.3333ZM14.7158 13.3333C14.3967 14.9667 13.8392 16.4592 13.0925 17.7317C15.1217 16.9175 16.7567 15.33 17.6325 13.3333H14.7158Z" fill="currentColor"/>
</svg>
