<svg viewBox="0 0 34 30" fill="none" xmlns="http://www.w3.org/2000/svg">
<path fill-rule="evenodd" clip-rule="evenodd" d="M30.694 25.0783C30.8215 24.9178 30.7837 24.7948 30.7837 24.6819C30.7857 17.9985 30.7871 11.3154 30.7837 4.63211C30.7832 3.63579 30.4092 3.26626 29.407 3.266C21.1522 3.26341 12.8975 3.26358 4.64274 3.26564C3.6289 3.26591 3.24533 3.64919 3.24497 4.66355C3.24258 11.4508 3.2432 18.2379 3.2471 25.0251C3.2471 25.1414 3.18073 25.2861 3.33048 25.3892C3.3738 25.34 3.41377 25.2979 3.45001 25.2529C4.99096 23.3389 6.53192 21.4249 8.07199 19.5101C8.7228 18.701 9.6942 18.6855 10.3303 19.477C10.998 20.3078 11.68 21.1276 12.3237 21.977C12.5872 22.3249 12.7089 22.2676 12.9414 21.9501C15.1279 18.9624 17.3531 16.003 19.5101 12.9941C20.1133 12.1526 21.2396 12.0729 21.882 12.9862C23.816 15.7358 25.8309 18.4277 27.8147 21.1418C28.7657 22.4431 29.7178 23.7437 30.694 25.0783ZM16.9889 0.00257314C21.174 0.00266246 25.3589 -0.00564459 29.544 0.00712862C31.0431 0.0116841 32.3087 0.547355 33.1938 1.82369C33.7813 2.67075 33.9912 3.63776 33.9922 4.64845C33.9993 11.5523 34.007 18.4563 33.9884 25.3602C33.9835 27.2042 33.2359 28.6657 31.5541 29.54C30.9427 29.858 30.2793 29.9966 29.5922 29.9967C21.1632 29.9986 12.7342 30.0046 4.30515 29.9935C1.92721 29.9903 0.047073 28.0945 0.0118962 25.6924C-0.0108757 24.1338 0.00604817 22.5745 0.00604817 21.0156C0.00587096 15.5221 0.0037444 10.0287 0.00737727 4.53528C0.00861776 2.71344 0.786229 1.33599 2.38593 0.465982C3.03223 0.114406 3.74436 0.00034006 4.47793 0.000875999C8.6482 0.00400231 12.8186 0.00248382 16.9889 0.00257314Z" fill="currentColor"/>
<path fill-rule="evenodd" clip-rule="evenodd" d="M13.3231 9.12736C13.3184 10.9126 11.882 12.3542 10.1108 12.3509C8.34674 12.3476 6.906 10.8913 6.90918 9.1145C6.91237 7.3401 8.36322 5.88404 10.1237 5.88868C11.8873 5.89324 13.3277 7.35126 13.3231 9.12736Z" fill="currentColor"/>
</svg>
