<svg viewBox="0 0 20 20" fill="none" xmlns="http://www.w3.org/2000/svg">
<mask id="mask0_19_541" style="mask-type:alpha" maskUnits="userSpaceOnUse" x="0" y="0" width="20" height="20">
<path fill-rule="evenodd" clip-rule="evenodd" d="M0 0H20V20H0V0Z" fill="currentColor"/>
</mask>
<g mask="url(#mask0_19_541)">
<path fill-rule="evenodd" clip-rule="evenodd" d="M18.0906 9.98895C17.9806 5.39438 14.4934 1.9281 10.0019 1.93049C5.41017 1.93294 1.91239 5.50683 1.93151 10.011C1.95157 14.7348 5.65347 18.1049 10.0239 18.0694C14.7544 18.0311 18.0169 14.3423 18.0906 9.98895ZM9.99027 20C4.458 19.9936 -0.0106088 15.5135 1.89178e-05 9.98379C0.0105946 4.45088 4.49368 -0.0147625 10.0228 3.66772e-05C15.5464 0.0148358 20.0021 4.4821 20 10.0033C19.9979 15.535 15.5207 20.0064 9.99027 20Z" fill="currentColor"/>
</g>
<path fill-rule="evenodd" clip-rule="evenodd" d="M10.9519 11.3021C10.952 11.7439 10.9505 12.1855 10.9524 12.6273C10.9547 13.1654 10.9014 13.1028 11.4188 13.1066C11.683 13.1086 11.9396 13.1402 12.1529 13.3146C12.47 13.574 12.5766 13.9578 12.4524 14.3695C12.344 14.7288 12.0398 14.9914 11.6165 14.9987C10.5429 15.0173 9.46839 15.0214 8.39494 14.9987C7.86277 14.9875 7.50538 14.5856 7.49251 14.0747C7.47991 13.5731 7.83396 13.1828 8.36295 13.1156C8.39723 13.1113 8.43198 13.1099 8.46652 13.1083C9.04833 13.0815 9.04839 13.0815 9.04833 12.5084C9.04833 11.9801 9.04031 11.4516 9.05224 10.9235C9.05698 10.712 8.99139 10.6396 8.77394 10.6351C8.31288 10.6255 7.98431 10.3924 7.86803 10.026C7.73831 9.61711 7.81338 9.25692 8.13966 8.96323C8.32434 8.797 8.55289 8.74677 8.78946 8.74166C9.17904 8.73322 9.56915 8.73093 9.95862 8.74119C10.5761 8.75745 10.9323 9.12311 10.9512 9.74305C10.9517 9.76036 10.9517 9.77771 10.9517 9.79501C10.9518 10.2974 10.9518 10.7997 10.9519 11.3021Z" fill="currentColor"/>
<path fill-rule="evenodd" clip-rule="evenodd" d="M8.73832 6.23689C8.74316 5.49787 9.2634 4.98918 10.0112 4.9922C10.7599 4.99522 11.271 5.5232 11.2623 6.28452C11.2538 7.01599 10.7245 7.52296 9.97655 7.51624C9.24001 7.50957 8.73342 6.98618 8.73832 6.23689Z" fill="currentColor"/>
</svg>
