<svg viewBox="0 0 20 20" fill="none" xmlns="http://www.w3.org/2000/svg">
<path fill-rule="evenodd" clip-rule="evenodd" d="M5.83333 0H14.1667C17.375 0 20 2.625 20 5.83333V14.1667C20 17.375 17.375 20 14.1667 20H5.83333C2.625 20 0 17.375 0 14.1667V5.83333C0 2.625 2.625 0 5.83333 0ZM17.1094 2.89062C16.3177 2.10417 15.2708 1.66667 14.1667 1.66667H5.83333C4.72917 1.66667 3.67708 2.09896 2.89062 2.89062C2.10417 3.68229 1.66667 4.72917 1.66667 5.83333V14.1667C1.66667 15.2708 2.09896 16.3229 2.89062 17.1094C3.68229 17.8958 4.72917 18.3333 5.83333 18.3333H14.1667C15.2708 18.3333 16.3229 17.901 17.1094 17.1094C17.8958 16.3177 18.3333 15.2708 18.3333 14.1667V5.83333C18.3333 4.72917 17.901 3.67708 17.1094 2.89062Z" fill="currentColor"/>
<path fill-rule="evenodd" clip-rule="evenodd" d="M15.4167 5.83325C14.724 5.83325 14.1667 5.27596 14.1667 4.58325C14.1667 3.89054 14.724 3.33325 15.4167 3.33325C16.1042 3.33325 16.6667 3.89054 16.6667 4.58325C16.6667 5.27596 16.1042 5.83325 15.4167 5.83325ZM10 6.66659C11.8385 6.66659 13.3333 8.16138 13.3333 9.99992C13.3333 11.8385 11.8385 13.3333 10 13.3333C8.16146 13.3333 6.66667 11.8385 6.66667 9.99992C6.66667 8.16138 8.16146 6.66659 10 6.66659ZM5 9.99992C5 7.2395 7.23958 4.99992 10 4.99992C12.7604 4.99992 15 7.2395 15 9.99992C15 12.7603 12.7604 14.9999 10 14.9999C7.23958 14.9999 5 12.7603 5 9.99992Z" fill="currentColor"/>
</svg>
