<svg viewBox="0 0 20 18" fill="none" xmlns="http://www.w3.org/2000/svg">
<path fill-rule="evenodd" clip-rule="evenodd" d="M16.6542 9.99814C16.5582 9.94199 16.4503 9.97191 16.3485 9.97186C13.2353 9.96983 10.1222 9.97068 7.00903 9.96972C6.39889 9.9695 6.07075 9.72988 5.95004 9.20557C5.81567 8.62201 6.19755 8.08298 6.79207 8.0226C6.90634 8.01104 7.02241 8.01565 7.13769 8.01565C10.2153 8.01533 13.293 8.0157 16.3707 8.01404C16.4645 8.01399 16.5634 8.04032 16.6775 7.97486C16.523 7.79717 16.3785 7.62209 16.2247 7.45574C15.2542 6.40557 14.2811 5.35769 13.3097 4.30827C12.7145 3.66535 12.941 2.79737 13.7574 2.60088C14.0987 2.51878 14.3886 2.63043 14.6261 2.87856C15.1421 3.4177 15.6557 3.95908 16.1672 4.50245C17.2996 5.70549 18.4302 6.91034 19.5614 8.11445C19.6162 8.17274 19.6739 8.22856 19.7244 8.29043C20.0995 8.74982 20.0934 9.19433 19.6957 9.63177C19.2657 10.105 18.8293 10.5726 18.3933 11.0405C17.158 12.3663 15.9219 13.6915 14.6851 15.0159C14.4008 15.3203 14.0577 15.5082 13.639 15.3818C13.2594 15.2672 13.0078 14.9938 12.9239 14.5921C12.8455 14.2177 13.0376 13.933 13.2668 13.6806C13.8101 13.0822 14.3679 12.4971 14.9199 11.9066C15.4718 11.3161 16.024 10.7259 16.5752 10.1347C16.6097 10.0977 16.6605 10.0683 16.6542 9.99814Z" fill="currentColor"/>
<path fill-rule="evenodd" clip-rule="evenodd" d="M1.95579 9.00336C1.95579 10.6317 1.9527 12.2602 1.95771 13.8885C1.9591 14.3574 2.04713 14.8084 2.32055 15.205C2.74008 15.8136 3.35993 16.0102 4.05192 16.0225C4.92072 16.038 5.79005 16.0223 6.65907 16.0286C7.15708 16.0323 7.50889 16.2691 7.63701 16.664C7.85147 17.3248 7.46068 17.9507 6.76459 17.9682C5.65697 17.996 4.54385 18.0298 3.4406 17.9524C1.5689 17.8211 0.0307147 16.164 0.0180778 14.2821C-0.00548978 10.7585 -0.00655618 7.23458 0.0180778 3.71106C0.0319944 1.71861 1.71366 0.0536149 3.69867 0.0123487C4.69149 -0.00831118 5.68507 0.00175115 6.67821 0.00828095C7.15916 0.0114923 7.50707 0.251489 7.63467 0.635785C7.77597 1.06129 7.66778 1.47272 7.33741 1.74558C7.12727 1.91921 6.87416 1.95882 6.61268 1.9593C5.76137 1.96075 4.90995 1.95486 4.05869 1.96219C3.59976 1.96621 3.15838 2.0595 2.77314 2.32738C2.15947 2.75406 1.96283 3.38649 1.95878 4.09155C1.94934 5.72871 1.95579 7.36609 1.95579 9.00336Z" fill="currentColor"/>
</svg>
