<svg viewBox="0 0 56 56" fill="none" xmlns="http://www.w3.org/2000/svg">
<path fill-rule="evenodd" clip-rule="evenodd" d="M44.3333 56H11.6667C5.22433 56 0 50.7757 0 44.3333V11.6667C0 5.22433 5.22433 0 11.6667 0H44.3333C50.778 0 56 5.22433 56 11.6667V44.3333C56 50.7757 50.7803 55.9977 44.3333 56ZM46.5967 42.819V42.1913L43.687 39.3353C43.4303 39.1393 43.302 38.8173 43.3557 38.4977V17.5023C43.302 17.1827 43.4303 16.8607 43.687 16.6647L46.6667 13.8087V13.181H36.3487L28.994 31.528L20.6267 13.181H9.80467V13.8087L13.2907 18.0063C13.6313 18.3167 13.8063 18.7693 13.7597 19.2267V35.728C13.8623 36.323 13.6733 36.932 13.2557 37.366L9.33333 42.1213V42.749H20.454V42.1213L16.5317 37.366C16.1093 36.932 15.911 36.3277 15.9903 35.728V21.4573L25.7507 42.749H26.8847L35.2683 21.4573V38.4277C35.2683 38.8803 35.2683 38.969 34.972 39.2653L31.9573 42.1913V42.819H46.5967Z" fill="currentColor"/>
</svg>
