<svg viewBox="0 0 69 24" fill="none" xmlns="http://www.w3.org/2000/svg">
<path fill-rule="evenodd" clip-rule="evenodd" d="M7.10824 23.4093L7.10774 16.6379C7.10473 15.5006 7.08819 14.571 7.0581 13.849C7.02468 13.0467 6.96339 12.2222 6.87425 11.3753L15.5989 23.4093H22.1173V0.0098877H15.1643V4.35549C15.142 5.60346 15.1476 6.63972 15.181 7.46428C15.2145 8.28883 15.2646 9.07438 15.3315 9.82093C15.3983 10.5675 15.4875 11.4422 15.5989 12.445L6.60683 0.0098877H0.155273V23.4093H7.10824ZM34.6861 23.4093V15.1861H43.0431V9.50337H34.6861V6.16059H44.2799V0.0098877H27.4657V23.4093H34.6861ZM61.2946 6.16059V23.4093H54.0742V6.16059H46.8538V0.0098877H68.7156V6.16059H61.2946Z" fill="currentColor"/>
</svg>
