<svg viewBox="0 0 50 50" fill="none" xmlns="http://www.w3.org/2000/svg">
<path fill-rule="evenodd" clip-rule="evenodd" d="M45.2264 24.9741C44.9547 13.5096 36.2575 4.82363 25.0067 4.82598C13.5486 4.82832 4.78445 13.7436 4.82887 25.0252C4.87524 36.8142 14.11 45.2586 25.0577 45.1733C36.8636 45.0813 45.0389 35.8788 45.2264 24.9741ZM24.948 49.9997C11.1147 49.9658 -0.044279 38.7531 9.30487e-06 24.9316C0.0442976 11.0974 11.2643 -0.0543696 25.0842 -4.65146e-05C38.9187 0.0544068 50.064 11.2823 49.9997 25.1003C49.9352 38.9118 38.7458 50.0334 24.948 49.9997Z" fill="currentColor"/>
<path fill-rule="evenodd" clip-rule="evenodd" d="M25.1322 34.3692C22.0744 34.3569 19.6749 35.4799 17.6544 37.5022C16.4292 38.7286 15.0422 38.7899 13.9372 37.693C12.9488 36.7116 12.9618 35.2389 14.0359 34.225C16.4572 31.9395 19.1689 30.2135 22.5662 29.7452C26.6714 29.1794 30.4393 29.9143 33.8026 32.4195C34.463 32.9116 35.0869 33.4445 35.708 33.9838C36.8956 35.0149 37.0904 36.5586 36.1459 37.6029C35.1009 38.7585 33.6287 38.765 32.4334 37.5869C31.1342 36.3064 29.6887 35.2736 27.9097 34.7722C26.947 34.5009 25.9693 34.3301 25.1322 34.3692Z" fill="currentColor"/>
<path fill-rule="evenodd" clip-rule="evenodd" d="M20.3542 20.3142C20.3558 22.1759 19.0742 23.4688 17.2217 23.4744C15.4918 23.4797 14.0323 22.0162 14.0481 20.2922C14.0636 18.596 15.5121 17.1639 17.2115 17.1646C19.0622 17.1653 20.3528 18.4587 20.3542 20.3142Z" fill="currentColor"/>
<path fill-rule="evenodd" clip-rule="evenodd" d="M32.8177 23.4745C31.0892 23.4783 29.6298 22.0095 29.6497 20.2864C29.6694 18.5887 31.1174 17.1623 32.819 17.1646C34.6671 17.1672 35.9561 18.4637 35.9559 20.3202C35.9557 22.1783 34.6701 23.4706 32.8177 23.4745Z" fill="currentColor"/>
</svg>
