<svg viewBox="0 0 18 18" fill="none" xmlns="http://www.w3.org/2000/svg">
<path opacity="0.5" fill-rule="evenodd" clip-rule="evenodd" d="M3.21707 2.38477C3.51348 2.40105 3.74878 2.52191 3.94166 2.71174C4.55883 3.3192 5.17413 3.92881 5.77792 4.5495C6.01886 4.79719 6.17832 5.08851 6.0594 5.46029C5.94968 5.80345 5.727 6.01806 5.37254 6.08745C5.05868 6.14892 4.79498 6.01656 4.58408 5.81382C3.9204 5.17601 3.26348 4.53045 2.6228 3.86965C2.35587 3.59442 2.26989 3.25173 2.44456 2.8769C2.60192 2.53927 2.88664 2.41531 3.21707 2.38477Z" fill="currentColor"/>
<path opacity="0.5" fill-rule="evenodd" clip-rule="evenodd" d="M3.18926 15.6163C2.89168 15.5843 2.60977 15.4667 2.45171 15.1425C2.27174 14.7733 2.34021 14.4219 2.60991 14.148C3.27129 13.4762 3.94515 12.8152 4.63994 12.1781C5.28795 11.584 5.93651 12.0923 6.07247 12.5965C6.16032 12.9222 6.02662 13.1904 5.81783 13.4064C5.18953 14.0564 4.54763 14.6936 3.9008 15.3253C3.72064 15.5012 3.4919 15.6098 3.18926 15.6163Z" fill="currentColor"/>
<path fill-rule="evenodd" clip-rule="evenodd" d="M12.777 6.10581C12.4634 6.07522 12.1929 5.93235 12.0253 5.62414C11.8599 5.31983 11.8709 5.02682 12.0905 4.75122C12.1584 4.66602 12.2264 4.58006 12.3023 4.50222C12.8797 3.9103 13.4547 3.31593 14.0399 2.7317C14.2988 2.47313 14.6024 2.31262 14.9899 2.42518C15.3227 2.52188 15.5177 2.74577 15.5944 3.07467C15.6712 3.40362 15.5406 3.68222 15.3232 3.90743C14.6948 4.55857 14.0551 5.19892 13.413 5.83669C13.2493 5.99921 13.0413 6.09216 12.777 6.10581Z" fill="currentColor"/>
<path opacity="0.5" fill-rule="evenodd" clip-rule="evenodd" d="M15.6146 14.7072C15.6067 15.3881 14.9543 15.7968 14.3971 15.5285C14.2635 15.4643 14.1418 15.3787 14.037 15.2716C13.4589 14.6814 12.8804 14.0918 12.3029 13.5011C12.2431 13.44 12.185 13.3764 12.1332 13.3085C11.8193 12.8969 11.8394 12.5445 12.1949 12.1817C12.5217 11.8481 12.9162 11.8227 13.3124 12.1133C13.3939 12.1729 13.4729 12.2376 13.5444 12.3088C14.1136 12.8749 14.6819 13.442 15.2479 14.0114C15.456 14.2207 15.6106 14.4593 15.6146 14.7072Z" fill="currentColor"/>
<g mask="url(#mask0_264_5073)">
<path fill-rule="evenodd" clip-rule="evenodd" d="M9.85566 2.26894C9.85566 2.7287 9.86364 3.18864 9.85322 3.64812C9.8443 4.04327 9.63701 4.34111 9.32066 4.45348C8.95043 4.58499 8.59161 4.49594 8.34274 4.21161C8.19562 4.0436 8.14681 3.83875 8.14569 3.62597C8.14085 2.7143 8.1371 1.80252 8.14606 0.890847C8.15122 0.361791 8.50962 0.000469557 8.99943 3.69777e-07C9.48909 -0.000421899 9.84374 0.360852 9.85453 0.88972C9.86387 1.34924 9.85646 1.80919 9.85646 2.26894H9.85566Z" fill="currentColor"/>
</g>
<path opacity="0.5" fill-rule="evenodd" clip-rule="evenodd" d="M2.26352 9.85537C1.79587 9.85537 1.32803 9.86325 0.860566 9.85293C0.467719 9.84425 0.16812 9.63377 0.0578359 9.31688C-0.0715958 8.94528 0.0186967 8.58692 0.303794 8.34027C0.472412 8.19435 0.677634 8.14673 0.890554 8.14569C1.80249 8.14119 2.71452 8.13659 3.62636 8.14663C4.1545 8.1525 4.51764 8.51682 4.51375 9.00327C4.50981 9.49456 4.14981 9.8441 3.61974 9.85438C3.16786 9.8632 2.7156 9.85626 2.26352 9.85626V9.85537Z" fill="currentColor"/>
<g mask="url(#mask1_264_5073)">
<path fill-rule="evenodd" clip-rule="evenodd" d="M15.7537 9.85651C15.2861 9.85651 14.8182 9.86429 14.3508 9.85407C13.9578 9.84557 13.658 9.63547 13.5474 9.31886C13.4176 8.94741 13.5076 8.589 13.7924 8.34197C13.9609 8.19577 14.1661 8.14787 14.3789 8.14679C15.2909 8.14224 16.2028 8.14008 17.1148 8.14711C17.5232 8.15026 17.8277 8.35942 17.9416 8.68335C18.0716 9.05316 17.9816 9.41383 17.6962 9.66006C17.5211 9.81118 17.3085 9.85449 17.0866 9.85646C16.6423 9.86031 16.198 9.85758 15.7537 9.85758V9.85651Z" fill="currentColor"/>
</g>
<g opacity="0.5">
<g mask="url(#mask2_264_5073)">
<path fill-rule="evenodd" clip-rule="evenodd" d="M8.14452 15.7521C8.14452 15.2845 8.13654 14.8167 8.14696 14.3494C8.15574 13.9568 8.36669 13.6575 8.68384 13.5475C9.05556 13.4185 9.41312 13.5103 9.66114 13.7939C9.78565 13.9363 9.8467 14.1098 9.84816 14.2877C9.85614 15.2616 9.86369 16.2358 9.84436 17.2095C9.83708 17.5722 9.63533 17.8423 9.27102 17.9536C8.90853 18.0642 8.59345 17.9806 8.34026 17.6943C8.18695 17.5209 8.14682 17.306 8.14466 17.0845C8.1403 16.6404 8.1434 16.1962 8.1434 15.7521H8.14452Z" fill="currentColor"/>
</g>
</g>
</svg>
