<svg viewBox="0 0 18 16" fill="none" xmlns="http://www.w3.org/2000/svg">
<path fill-rule="evenodd" clip-rule="evenodd" d="M13.2745 15.1254C13.5045 15.2915 13.8009 15.333 14.0652 15.231C14.3295 15.1283 14.5237 14.8981 14.5823 14.619C15.203 11.6435 16.7087 4.11228 17.2737 1.40564C17.3165 1.20164 17.2451 0.989623 17.088 0.85338C16.9308 0.717137 16.713 0.677795 16.5187 0.75138C13.5238 1.88212 4.3004 5.41206 0.530485 6.83496C0.291204 6.9253 0.135494 7.1599 0.143351 7.41709C0.151922 7.675 0.321918 7.89867 0.566912 7.97372C2.25759 8.48955 4.47682 9.20719 4.47682 9.20719C4.47682 9.20719 5.51394 12.402 6.05464 14.0267C6.1225 14.2307 6.27893 14.391 6.48535 14.4464C6.69106 14.501 6.91105 14.4434 7.06462 14.2955C7.93317 13.4591 9.276 12.1659 9.276 12.1659C9.276 12.1659 11.8274 14.0741 13.2745 15.1254ZM5.41037 8.80356L6.60963 12.8384L6.87605 10.2833C6.87605 10.2833 11.5095 6.02042 14.1509 3.59063C14.228 3.51923 14.2387 3.39974 14.1745 3.31595C14.1109 3.23217 13.9937 3.2125 13.9059 3.26933C10.8445 5.26343 5.41037 8.80356 5.41037 8.80356Z" fill="currentColor"/>
</svg>
