<svg viewBox="0 0 17 13" fill="none" xmlns="http://www.w3.org/2000/svg">
<path d="M16.1429 1.84837C15.5753 2.08955 14.9652 2.25198 14.3249 2.32519C14.9787 1.9505 15.4808 1.35677 15.7167 0.649227C15.1054 0.996233 14.4278 1.24849 13.7065 1.38446C13.1299 0.795659 12.3064 0.427734 11.3961 0.427734C9.35243 0.427734 7.85071 2.25259 8.31228 4.14697C5.68236 4.02084 3.35007 2.81494 1.78857 0.982082C0.959284 2.34365 1.3585 4.12482 2.76764 5.02679C2.2495 5.01079 1.76093 4.87482 1.33471 4.64779C1.3 6.0512 2.35107 7.36416 3.87336 7.65641C3.42786 7.77207 2.93993 7.79915 2.44364 7.70809C2.84607 8.91153 4.01478 9.78705 5.40078 9.81166C4.07007 10.8102 2.3935 11.2563 0.714355 11.0668C2.11514 11.9263 3.7795 12.4277 5.56664 12.4277C11.4436 12.4277 14.764 7.67732 14.5634 3.41666C15.1819 2.98906 15.7186 2.45563 16.1429 1.84837Z" fill="currentColor"/>
</svg>
