<svg viewBox="0 0 20 17" fill="none" xmlns="http://www.w3.org/2000/svg">
<path fill-rule="evenodd" clip-rule="evenodd" d="M10.5228 0.00303864C12.8875 0.00303864 15.2522 0.0033928 17.6169 0.0025327C17.8896 0.00243151 18.1591 0.0224162 18.3799 0.196207C18.6816 0.433796 18.7981 0.745456 18.719 1.11732C18.6371 1.50295 18.394 1.73533 17.997 1.82129C17.8423 1.85478 17.6873 1.85083 17.5317 1.85083C12.9234 1.85129 8.31516 1.85099 3.70694 1.85164C3.25716 1.85169 2.82973 1.91519 2.47114 2.21987C2.07739 2.55445 1.9107 2.97903 1.91049 3.47344C1.90888 6.82216 1.90424 10.171 1.91283 13.5197C1.91538 14.5179 2.56409 15.1455 3.59342 15.1473C7.86383 15.1543 12.1342 15.154 16.4047 15.1476C17.4462 15.146 18.089 14.5153 18.0929 13.5014C18.1011 11.3812 18.0956 9.26079 18.0953 7.14044C18.0952 6.60784 17.9196 6.15588 17.4785 5.81108C17.1225 5.53272 16.7081 5.48748 16.2789 5.48738C12.5109 5.48617 8.74286 5.48673 4.97483 5.48642C4.86229 5.48642 4.74887 5.49052 4.63732 5.47909C4.10808 5.42495 3.75136 5.05157 3.75334 4.55989C3.75527 4.06797 4.11376 3.69747 4.64269 3.64505C4.7371 3.63574 4.83302 3.63868 4.92827 3.63868C8.74828 3.63842 12.5683 3.63549 16.3883 3.63989C17.9926 3.64171 19.1265 4.35919 19.7624 5.79439C19.9387 6.19241 19.9996 6.6173 19.9992 7.05155C19.9972 9.23079 20.0036 11.41 19.9967 13.5892C19.9905 15.524 18.4804 16.9941 16.4887 16.9969C12.1663 17.0028 7.84388 16.9982 3.5215 16.9998C3.20738 16.9999 2.9005 16.961 2.59638 16.8879C1.14904 16.5405 0.0235296 15.2229 0.0156141 13.7711C-0.00344555 10.2626 -0.00698669 6.75385 0.0158745 3.24536C0.0274353 1.47219 1.57788 0.0188746 3.42849 0.00754151C5.79314 -0.00702958 8.158 0.00399992 10.5228 0.00399992V0.00303864Z" fill="currentColor"/>
<path fill-rule="evenodd" clip-rule="evenodd" d="M16.2541 10.3217C16.2533 11.0427 15.7383 11.5434 14.9964 11.5444C14.2411 11.5454 13.7267 11.0411 13.7312 10.3038C13.7356 9.58735 14.2566 9.09133 15.0019 9.09376C15.7412 9.09624 16.2549 9.59995 16.2541 10.3217Z" fill="currentColor"/>
</svg>
