<svg viewBox="0 0 18 18" fill="none" xmlns="http://www.w3.org/2000/svg">
<path fill-rule="evenodd" clip-rule="evenodd" d="M9 0C4.02944 0 0 4.02944 0 9C0 13.9706 4.02944 18 9 18C13.9706 18 18 13.9706 18 9C18 6.61305 17.0518 4.32387 15.364 2.63604C13.6761 0.948212 11.3869 0 9 0ZM9 14.0625C8.37868 14.0625 7.875 13.5588 7.875 12.9375C7.875 12.3162 8.37868 11.8125 9 11.8125C9.62132 11.8125 10.125 12.3162 10.125 12.9375C10.125 13.5588 9.62132 14.0625 9 14.0625ZM7.875 10.125H10.125V3.9375H7.875V10.125Z" fill="currentColor"/>
</svg>
