<svg viewBox="0 0 30 30" fill="none" xmlns="http://www.w3.org/2000/svg">
<rect width="30" height="30" rx="6.73828" fill="url(#paint0_linear_324_17659)"/>
<path fill-rule="evenodd" clip-rule="evenodd" d="M12.5391 9.27246C12.5391 8.69743 13.0051 8.23242 13.5791 8.23242C14.1541 8.23242 14.6191 8.69743 14.6191 9.27246C14.6191 9.84645 14.1541 10.3125 13.5791 10.3125C13.0051 10.3125 12.5391 9.84645 12.5391 9.27246Z" fill="white"/>
<g mask="url(#mask0_324_17659)">
<path fill-rule="evenodd" clip-rule="evenodd" d="M12.8122 12.469C11.3584 12.469 10.1807 11.2908 10.1807 9.83882C10.1807 8.38577 11.3584 7.20964 12.8122 7.20964C14.265 7.20964 15.4438 8.38577 15.4438 9.83882C15.4438 11.2908 14.265 12.469 12.8122 12.469ZM15.0266 6.03974V4.62817C9.68884 4.62817 5.36072 8.95413 5.36072 14.2903H14.1425C15.8173 14.2903 17.213 15.6116 17.2555 17.2856C17.2566 17.3229 17.2576 17.3613 17.2576 17.3986C17.2576 19.8141 15.2985 21.7723 12.8817 21.7723C11.3875 21.7723 10.1776 20.5619 10.1776 19.0684C10.1776 18.1464 10.9257 17.3986 11.8482 17.3986C11.9499 17.3986 12.0485 17.4142 12.1419 17.4411C12.0682 17.6289 12.0309 17.8353 12.0392 18.052C12.0703 18.806 12.6742 19.4283 13.4276 19.4791C14.3002 19.5383 15.0266 18.8485 15.0266 17.9888C15.0266 17.9753 15.0266 17.9607 15.0266 17.9452C15.0038 16.7048 13.9889 15.706 12.7417 15.706C10.7026 15.706 9.04963 17.3582 9.04963 19.3972C9.04963 22.6964 11.7258 25.3712 15.0266 25.3712C20.3675 25.3712 24.6977 21.0452 24.6977 15.706C24.6977 10.3678 20.3675 6.03974 15.0266 6.03974Z" fill="white"/>
</g>
<path fill-rule="evenodd" clip-rule="evenodd" d="M15.9242 5.72297C16.0942 5.73938 16.2641 5.75886 16.4321 5.78449C16.4321 5.77937 16.4331 5.77424 16.4331 5.76809C16.4606 5.48406 16.2529 5.23181 15.97 5.20412C15.688 5.17746 15.4366 5.38664 15.4102 5.67068C15.4102 5.67683 15.4102 5.68196 15.4102 5.68708C15.5801 5.69529 15.7522 5.70554 15.9242 5.72297Z" fill="white"/>
<path fill-rule="evenodd" clip-rule="evenodd" d="M17.5965 6.05584C17.5976 6.04558 17.5996 6.0343 17.6006 6.02405C17.6273 5.73899 17.4191 5.48675 17.1341 5.46009C16.8798 5.4365 16.6521 5.60056 16.5865 5.83743C16.93 5.89383 17.2674 5.96663 17.5965 6.05584Z" fill="white"/>
<path fill-rule="evenodd" clip-rule="evenodd" d="M18.8024 6.41558C18.8126 6.38175 18.8209 6.34586 18.8239 6.30894C18.8506 6.02388 18.6414 5.77164 18.3564 5.74498C18.1195 5.72242 17.9052 5.86392 17.8242 6.07618C18.1584 6.17257 18.4845 6.28536 18.8024 6.41558Z" fill="white"/>
<path fill-rule="evenodd" clip-rule="evenodd" d="M19.8484 6.94683C19.873 6.89351 19.8905 6.83608 19.8966 6.77456C19.9233 6.4895 19.7141 6.23726 19.4291 6.20957C19.2117 6.19009 19.0127 6.30801 18.9194 6.49155C19.2383 6.6269 19.549 6.77969 19.8484 6.94683Z" fill="white"/>
<path fill-rule="evenodd" clip-rule="evenodd" d="M20.8919 7.60938C20.9278 7.54683 20.9514 7.47608 20.9586 7.4002C20.9852 7.11616 20.7761 6.86289 20.492 6.83623C20.3033 6.8188 20.1301 6.90391 20.0255 7.04541C20.3249 7.2187 20.614 7.40738 20.8919 7.60938Z" fill="white"/>
<path fill-rule="evenodd" clip-rule="evenodd" d="M21.7977 8.37772C21.8613 8.30082 21.9043 8.20443 21.9136 8.09779C21.9402 7.81171 21.7321 7.55946 21.447 7.5328C21.2717 7.51639 21.1097 7.58817 21.0041 7.71327C21.2809 7.92142 21.5455 8.14291 21.7977 8.37772Z" fill="white"/>
<path fill-rule="evenodd" clip-rule="evenodd" d="M22.6751 9.24584C22.7582 9.16381 22.8136 9.05409 22.8248 8.92695C22.8525 8.64291 22.6434 8.39067 22.3583 8.36401C22.2106 8.34965 22.0712 8.39989 21.9676 8.49115C22.2168 8.73007 22.4526 8.98232 22.6751 9.24584Z" fill="white"/>
<defs>
<linearGradient id="paint0_linear_324_17659" x1="0" y1="0" x2="0" y2="30" gradientUnits="userSpaceOnUse">
<stop stop-color="#393939"/>
<stop offset="1" stop-color="#1A1A1A"/>
</linearGradient>
</defs>
</svg>
